<?xml version="1.0" encoding="utf-8"?>
<!-- Generator: Adobe Illustrator 16.0.0, SVG Export Plug-In . SVG Version: 6.00 Build 0)  -->
<!DOCTYPE svg PUBLIC "-//W3C//DTD SVG 1.1//EN" "http://www.w3.org/Graphics/SVG/1.1/DTD/svg11.dtd">
<svg version="1.1" id="Layer_1" xmlns="http://www.w3.org/2000/svg" xmlns:xlink="http://www.w3.org/1999/xlink" x="0px" y="0px"
	 width="680px" height="520px" viewBox="0 0 680 520" enable-background="new 0 0 680 520" xml:space="preserve">
<g transform="translate(0.000000,520.000000) scale(0.100000,-0.100000)">
	<path d="M3768.991,5169.997c-460-45.996-943.994-211.992-1288.994-442.998c-176.005-117.002-377.001-295.996-517.002-460
		l-50-59.004l-67.002,95c-119.004,169.004-295,321.006-474.004,411.006c-198.994,100-505,165.996-771.992,165.996
		c-86.006,0-100-1.992-100-15.996c0-37.002,53.994-252.998,86.992-347.998c47.002-135,149.004-331.006,228.008-438.008
		l63.994-86.992l-37.002-7.002c-145.996-25-437.998-87.002-491.992-104.004c-111.006-37.002-320-132.002-320-145.996
		c0-17.998,228.994-272.002,325.996-362.998c252.998-234.004,550.996-351.006,892.998-351.006h122.998l-5.996-87.002
		c-4.004-48.994-12.002-132.998-17.998-187.998c-16.006-152.998-12.998-470,5.996-613.994
		c82.002-617.998,357.998-1135,791.006-1486.006c400.996-323.994,977.001-545.996,1573.994-605c152.002-15,543.008-11.992,706.006,5
		c602.998,64.004,1127.002,268.008,1540,598.008c112.998,90.996,307.998,295.996,387.001,407.998
		c173.994,245,302.998,537.998,367.998,835.996c47.002,217.002,60,337.998,60,567.998c0,482.002-87.998,884.004-280,1280
		c-127.998,262.998-277.998,472.998-495,691.006c-267.998,268.994-557.998,448.994-936.006,582.002
		c-152.998,53.994-401.992,114.99-568.994,140.996c-74.004,10.996-146.006,22.002-160,23.994
		C4283.991,5181.999,3864.997,5179.001,3768.991,5169.997z M4353.991,5149.001c1020-135.996,1716.006-600.996,2122.001-1419.004
		c146.006-295.996,221.006-557.002,269.004-948.994c23.994-189.004,15.996-567.002-14.004-731.006
		c-117.002-630-388.994-1092.998-840.996-1433.994c-375-282.002-842.002-466.006-1380-541.006
		c-156.006-21.992-601.006-30.996-767.998-15.996c-267.002,25-558.008,90-797.002,175.996c-755,273.008-1231.005,737.002-1460,1420
		c-124.004,370-152.002,697.002-106.006,1195c6.006,57.998,10,124.004,11.006,147.998v42.002H1261.99
		c-330.996,0-605,102.002-860.996,322.002c-67.998,59.004-340.996,352.998-340.996,367.998c0,7.998,190,91.006,277.998,121.006
		c77.002,26.992,183.994,50.996,387.002,88.994c92.998,17.002,175.996,32.998,182.998,36.006
		c8.994,2.998-2.002,23.994-36.006,66.992c-175.996,222.002-266.992,429.004-346.992,795.01c-5,20.996-3.008,21.992,80,21.992
		c108.994,0,251.992-15.996,378.994-40.996c271.006-55,492.998-164.004,672.998-332.998c69.004-64.004,186.006-209.004,225-277.002
		c12.002-21.006,24.004-39.004,27.002-37.998c2.998,0,49.004,50,101.006,110c310.996,360,717.002,612.998,1212.002,757.998
		c162.998,47.002,346.992,85.996,477.998,100.996c52.002,6.006,122.998,15,155.996,20
		C3949.997,5174.997,4198.991,5169.997,4353.991,5149.001z"/>
	<path d="M3392.995,3389.001c-330.996-50-677.998-170-887.998-307.002c-198.007-127.998-339.003-309.004-390-497.002
		c-25-92.998-30-262.998-11.006-375.996c62.998-384.004,284.004-635.996,639.003-727.998
		c82.998-22.002,315.996-52.002,407.002-52.998c65,0,308.994,33.994,470,66.992c185,38.008,275,48.008,445,48.008
		c172.002,0,260.996-10,450-49.004c425.996-87.998,750.996-70,1022.998,57.002c197.998,92.002,322.002,218.994,399.004,408.994
		c85,207.002,98.994,452.002,37.998,636.006c-42.998,130.996-99.004,217.998-210,330c-177.998,180-404.004,305.996-677.002,378.994
		c-180.996,47.998-585.996,107.998-847.002,125C4005.993,3444.997,3654.997,3427.995,3392.995,3389.001z M4649.997,3364.001
		c355.996-51.006,542.998-100,733.994-196.006c332.002-165,532.002-388.994,591.006-660.996
		c22.998-105,17.002-287.998-14.004-407.002c-45-173.994-147.998-340-265-427.998c-175.996-132.998-385-198.994-657.998-208.994
		c-175.996-6.006-277.998,2.998-492.998,46.992c-212.998,44.004-295,53.008-475,53.008c-177.002,0.996-291.006-11.006-465-48.008
		c-137.002-30-387.998-65-457.002-65c-84.004,0-302.002,28.008-390.996,51.006c-45,10.996-128.008,42.002-183.008,68.994
		c-163.994,79.004-308.994,231.006-377.001,395c-103.994,250-113.994,510-25.996,711.006
		c57.998,132.998,197.002,286.992,347.001,385c270,177.998,682.002,300,1137.002,337.998
		C3996.999,3427.995,4270.993,3417.995,4649.997,3364.001z"/>
	<path d="M5123.991,2979.997c-21.992-8.994-302.998-257.998-425.996-378.994c-90-87.002-107.998-119.004-107.998-190
		c0-89.004,20.996-115,243.994-300c111.006-92.998,219.004-181.006,240-195c131.006-87.998,309.004,8.994,309.004,168.994
		c0,82.002-20.996,111.006-159.004,224.004c-68.994,57.002-127.998,110-130.996,118.994c-5,10,35.996,56.006,135,151.006
		c117.998,113.994,142.998,142.998,152.002,177.998c27.002,105.996-36.006,214.004-137.002,232.998
		C5204.997,2997.995,5162.995,2994.001,5123.991,2979.997z M5164.997,2967.995c40.996,11.006,102.002-2.998,142.002-33.994
		c41.992-32.002,67.998-110,52.998-162.998c-12.002-46.006-31.006-67.002-165-191.006
		c-122.002-112.998-137.998-133.994-122.998-163.994c5.996-12.002,65.996-67.002,133.994-124.004
		c67.998-55.996,131.006-115.996,140-132.998c20-39.004,20-107.998,1.006-145c-37.002-70.996-122.002-120-189.004-109.004
		c-45,8.008-67.998,25-319.004,232.002c-198.994,165-228.994,200.996-228.994,272.002c0,68.994,30,108.994,192.002,257.002
		c165.996,151.992,325.996,293.994,330,293.994C5133.991,2959.997,5148.991,2964.001,5164.997,2967.995z"/>
	<path d="M2734.997,2846.999c-30-105-15-135,148.994-295c69.004-67.998,126.006-127.002,126.006-132.998
		c0-12.998-21.006-32.002-137.002-127.002c-120.996-98.994-142.998-135-142.998-233.994c0-75,20.996-116.006,80-156.006
		c30-20,45-22.998,100.996-20c80,4.004,86.006,7.998,324.004,202.002c205.996,167.998,250.996,210,275.996,257.998
		c25,49.004,25,127.002,0,175.996c-22.998,44.004-440,426.006-502.998,460C2900.993,3034.997,2771.999,2972.995,2734.997,2846.999z
		 M2935.993,2979.997c30-0.996,84.004-33.994,149.004-90c142.998-125,387.002-352.998,402.002-375.996
		c8.994-14.004,17.998-47.002,20.996-72.998c5.996-64.004-20.996-114.004-95-178.008
		c-139.004-119.99-407.998-332.998-437.998-346.992c-79.004-37.998-174.004-6.006-210,70
		c-24.004,50.996-17.002,138.994,13.994,182.998c13.008,17.998,75,75,137.002,127.002c94.004,77.998,114.004,100,114.004,121.992
		c0,21.006-27.002,53.008-134.004,157.002c-155.996,151.006-167.002,172.002-140.996,260c18.994,66.006,65,116.006,122.002,132.998
		C2898.991,2974.997,2925.993,2979.997,2935.993,2979.997z"/>
</g>
</svg>
